<?xml version="1.0" encoding="iso-8859-1"?>
<!-- Generator: Adobe Illustrator 16.0.0, SVG Export Plug-In . SVG Version: 6.00 Build 0)  -->
<!DOCTYPE svg PUBLIC "-//W3C//DTD SVG 1.1//EN" "http://www.w3.org/Graphics/SVG/1.1/DTD/svg11.dtd">
<svg version="1.1" id="Capa_1" xmlns="http://www.w3.org/2000/svg" xmlns:xlink="http://www.w3.org/1999/xlink" x="0px" y="0px"
	 width="497.25px" height="497.25px" viewBox="0 0 497.25 497.25" style="enable-background:new 0 0 497.25 497.25;" fill="#000"
	 xml:space="preserve">
<g>
	<g>
		<path d="M248.625,191.25c-32.513,0-57.375,24.862-57.375,57.375S216.112,306,248.625,306S306,281.138,306,248.625
			S281.138,191.25,248.625,191.25z M248.625,267.75c-11.475,0-19.125-7.65-19.125-19.125c0-11.475,7.65-19.125,19.125-19.125
			s19.125,7.65,19.125,19.125C267.75,260.1,260.1,267.75,248.625,267.75z"/>
		<path d="M248.625,114.75C76.5,114.75,0,248.625,0,248.625S76.5,382.5,248.625,382.5S497.25,248.625,497.25,248.625
			S420.75,114.75,248.625,114.75z M248.625,325.125c-42.075,0-76.5-34.425-76.5-76.5s34.425-76.5,76.5-76.5s76.5,34.425,76.5,76.5
			S290.7,325.125,248.625,325.125z"/>
	</g>
</g>
<g>
</g>
<g>
</g>
<g>
</g>
<g>
</g>
<g>
</g>
<g>
</g>
<g>
</g>
<g>
</g>
<g>
</g>
<g>
</g>
<g>
</g>
<g>
</g>
<g>
</g>
<g>
</g>
<g>
</g>
</svg>
