<?xml version="1.0" standalone="no"?>
<!DOCTYPE svg PUBLIC "-//W3C//DTD SVG 20010904//EN"
 "http://www.w3.org/TR/2001/REC-SVG-20010904/DTD/svg10.dtd">
<svg version="1.0" xmlns="http://www.w3.org/2000/svg"
 width="260.000000pt" height="260.000000pt" viewBox="0 0 260.000000 260.000000"
 preserveAspectRatio="xMidYMid meet">
<metadata>
Created by potrace 1.14, written by Peter Selinger 2001-2017
</metadata>
<g transform="translate(0.000000,260.000000) scale(0.100000,-0.100000)"
fill="#000000" stroke="none">
<path d="M1087 2584 c2 -6 -3 -11 -11 -11 -8 0 -13 4 -10 9 3 4 1 8 -5 8 -5 0
-13 -5 -17 -11 -4 -8 -9 -7 -15 2 -6 11 -9 10 -15 -4 -5 -15 -9 -15 -22 -5
-13 11 -15 10 -9 -5 5 -13 3 -16 -6 -10 -19 12 -38 12 -30 0 4 -6 0 -8 -9 -4
-9 3 -26 -2 -39 -10 -14 -11 -19 -12 -14 -3 9 14 -67 -24 -99 -50 -11 -8 -16
-10 -12 -2 13 22 -6 13 -30 -15 -13 -16 -24 -24 -24 -19 0 5 -8 2 -17 -5 -15
-12 -16 -12 -8 1 4 8 -3 4 -16 -10 -13 -13 -23 -28 -22 -32 2 -4 -3 -5 -11 -2
-8 3 -23 -8 -36 -26 -14 -19 -28 -29 -37 -26 -8 3 -11 1 -8 -4 3 -6 1 -10 -6
-10 -7 0 -9 -3 -6 -7 4 -3 -5 -15 -20 -26 -16 -10 -20 -16 -10 -13 11 3 16 2
12 -4 -3 -6 -13 -10 -22 -10 -10 0 -14 -6 -10 -19 3 -15 1 -18 -11 -14 -10 4
-13 2 -8 -5 3 -6 2 -13 -4 -17 -6 -4 -8 -11 -5 -16 3 -5 -1 -6 -10 -3 -13 5
-15 1 -11 -20 2 -14 2 -25 -2 -23 -4 1 -9 -2 -11 -8 -9 -20 -26 -33 -36 -27
-5 3 -5 -1 2 -9 10 -12 8 -17 -8 -27 -11 -7 -17 -17 -13 -23 3 -6 -2 -19 -12
-30 -20 -23 -29 -73 -11 -62 8 4 7 1 -1 -9 -10 -13 -10 -17 0 -21 10 -4 9 -6
-1 -6 -11 -1 -10 -5 5 -16 10 -8 14 -15 8 -15 -5 0 -9 -18 -8 -40 1 -22 -3
-40 -9 -40 -5 0 -4 -6 2 -14 9 -11 9 -16 0 -22 -8 -5 -9 -3 -4 6 5 9 4 11 -4
6 -6 -4 -8 -13 -4 -19 4 -7 6 -23 4 -36 -2 -17 1 -21 11 -15 10 6 10 4 -1 -9
-12 -15 -9 -21 12 -18 4 0 7 -4 7 -9 0 -6 -8 -10 -17 -10 -15 0 -15 -2 -4 -9
13 -9 23 -60 11 -59 -18 2 -23 -4 -10 -12 11 -7 11 -10 2 -10 -7 0 -10 -4 -7
-10 3 -5 2 -10 -4 -10 -6 0 -7 -11 -3 -27 4 -16 6 -41 4 -58 -1 -16 -3 -38 -3
-47 0 -10 -5 -20 -10 -24 -6 -3 -5 -12 3 -22 10 -12 10 -14 1 -8 -17 9 -17 -6
0 -23 8 -10 8 -12 0 -7 -8 4 -11 -3 -11 -23 1 -19 5 -28 12 -24 8 5 8 3 0 -8
-15 -20 -16 -61 -1 -52 7 4 6 0 -2 -10 -10 -13 -10 -17 -1 -17 10 0 10 -4 -1
-16 -10 -13 -10 -17 2 -24 12 -8 12 -13 1 -31 -13 -20 -12 -21 3 -15 17 6 17
5 0 -20 -9 -15 -13 -24 -8 -21 5 3 15 2 23 -4 12 -7 11 -9 -5 -9 -17 0 -17 -2
-5 -10 11 -7 11 -10 2 -10 -8 0 -10 -5 -6 -12 12 -18 11 -58 -1 -58 -5 0 -2
-5 9 -11 15 -9 16 -13 5 -20 -12 -7 -11 -9 1 -9 13 0 13 -1 0 -10 -11 -7 -11
-10 -2 -10 10 0 10 -5 1 -22 -10 -18 -9 -20 4 -15 11 4 14 2 10 -9 -3 -8 1
-14 8 -14 9 0 7 -4 -4 -11 -18 -10 -18 -11 0 -31 10 -11 18 -23 18 -27 0 -3 4
-5 9 -3 5 2 4 -3 -1 -10 -8 -9 -8 -18 2 -31 10 -14 14 -15 19 -5 3 7 3 3 0 -9
-3 -13 -1 -23 5 -23 6 0 11 -5 11 -11 0 -5 -6 -7 -12 -3 -7 4 -5 -2 5 -13 9
-11 14 -23 10 -26 -3 -4 -1 -7 5 -7 6 0 9 -7 5 -17 -5 -12 -3 -14 7 -8 10 6
12 4 7 -7 -3 -9 2 -26 10 -39 9 -12 11 -19 5 -15 -7 4 -12 2 -12 -3 0 -6 5
-11 10 -11 6 0 10 -7 10 -15 0 -8 4 -15 8 -15 4 0 9 -9 10 -20 4 -43 6 -50 14
-50 4 0 8 -5 8 -12 0 -6 8 -21 17 -32 14 -16 14 -18 3 -11 -9 6 -8 3 2 -7 13
-12 15 -18 6 -21 -10 -4 -10 -6 0 -6 6 -1 12 -8 12 -17 0 -8 4 -12 10 -9 5 3
7 0 4 -8 -3 -8 2 -17 10 -20 9 -4 16 -13 16 -22 0 -8 4 -14 8 -13 4 2 20 -10
35 -26 15 -16 27 -25 27 -21 0 4 8 -2 19 -13 10 -12 26 -22 35 -22 10 0 14 -4
11 -10 -3 -5 -1 -10 5 -10 6 0 18 -7 27 -15 8 -8 19 -13 24 -10 5 4 9 -1 9
-10 0 -9 4 -14 9 -10 5 3 13 -4 16 -16 6 -17 9 -19 16 -8 7 11 9 10 9 -4 0
-10 4 -15 10 -12 5 3 10 1 10 -5 0 -6 5 -8 11 -5 6 4 17 -1 25 -11 15 -18 15
-18 9 0 -6 19 -5 19 15 1 11 -10 20 -15 20 -10 0 4 7 2 15 -5 8 -7 15 -9 15
-4 0 5 8 0 17 -11 10 -13 14 -15 10 -4 -3 10 1 16 10 16 9 0 18 -9 21 -19 2
-10 8 -15 13 -12 5 3 9 -1 9 -8 0 -9 3 -9 10 2 8 13 10 12 10 -3 0 -15 3 -16
23 -6 21 12 21 11 7 -6 -14 -17 -14 -17 7 -7 24 13 56 17 36 4 -6 -4 20 -7 58
-7 38 0 69 3 69 8 0 4 5 7 11 7 5 0 7 -4 4 -10 -3 -5 1 -10 10 -10 9 0 14 4
11 8 -3 5 1 9 9 9 8 0 13 -3 11 -6 -2 -3 29 -6 69 -6 44 -1 71 3 68 9 -4 5 -1
6 8 1 18 -12 49 -14 43 -3 -3 4 0 8 6 8 6 0 8 5 4 12 -5 7 -3 8 7 2 18 -11 80
-13 73 -2 -3 4 -10 5 -16 2 -7 -4 -8 -2 -4 4 5 9 13 9 27 2 13 -8 19 -7 19 0
0 6 5 8 10 5 6 -3 10 -1 10 4 0 6 5 11 11 11 5 0 7 -5 3 -11 -4 -7 -1 -10 7
-7 8 3 13 11 11 18 -3 11 0 11 12 1 13 -11 17 -11 22 2 3 9 14 14 25 12 11 -2
17 0 14 4 -2 5 5 11 16 14 14 4 18 10 14 19 -6 10 -5 10 5 1 11 -10 16 -9 27
5 8 9 12 11 8 5 -4 -9 -1 -11 9 -7 9 3 16 10 16 15 0 5 3 8 8 8 16 -4 72 23
66 32 -5 8 9 13 29 10 4 0 7 5 7 13 0 8 5 18 12 22 7 5 8 3 3 -6 -5 -9 -4 -11
3 -6 7 4 12 14 12 22 0 8 5 12 10 9 9 -6 15 8 11 29 -1 5 5 3 14 -4 13 -11 15
-10 9 4 -4 10 0 18 10 22 9 3 14 10 11 14 -3 4 5 10 16 13 14 4 20 11 16 21
-4 9 -3 15 1 13 11 -3 51 40 44 48 -4 3 0 10 8 15 11 7 12 10 2 10 -10 0 -9 4
2 16 9 8 14 20 10 25 -3 5 2 12 11 15 12 5 13 10 4 20 -9 11 -8 15 5 20 9 3
13 10 10 15 -3 5 -1 9 5 9 6 0 8 7 5 15 -4 8 -1 15 5 15 6 0 11 7 11 16 0 9
-5 13 -13 9 -6 -4 -5 -1 3 7 9 7 15 26 13 43 -1 16 3 36 10 44 9 12 9 13 0 7
-7 -4 -13 -3 -13 3 0 5 5 13 10 16 8 5 8 11 0 20 -8 10 -8 15 0 20 7 4 10 20
8 36 -3 15 -1 26 3 24 4 -3 9 2 13 10 3 8 1 15 -5 15 -6 0 -7 5 -3 12 10 16
12 58 2 52 -10 -6 -5 26 6 45 6 10 5 12 -2 7 -16 -10 -15 7 1 23 7 9 8 11 1 8
-13 -8 -13 50 0 71 4 7 2 12 -5 12 -9 0 -9 3 0 14 9 11 9 16 0 22 -8 5 -9 3
-4 -6 6 -9 4 -11 -4 -5 -8 5 -9 11 -3 17 11 11 4 77 -10 95 -6 7 -5 14 4 20 7
4 13 24 13 45 0 20 -3 34 -7 32 -5 -3 -8 0 -8 5 0 6 6 11 13 12 6 0 3 4 -8 9
-19 8 -19 9 -1 9 19 1 19 1 0 23 -10 12 -13 18 -6 14 6 -4 12 -3 12 1 0 5 -6
15 -12 22 -11 11 -10 12 2 6 12 -6 13 -5 3 6 -7 7 -13 21 -13 32 0 11 -5 15
-11 11 -8 -5 -8 -1 0 14 14 27 14 35 -1 26 -10 -5 -10 -4 -1 6 6 7 9 19 6 28
-4 10 -2 13 5 8 8 -5 10 -2 6 8 -3 9 -1 16 6 16 6 0 9 4 5 9 -3 5 -1 12 4 15
5 4 7 21 4 39 -2 17 -5 39 -5 47 0 8 -8 24 -17 34 -13 16 -13 18 -1 11 12 -6
12 -5 3 5 -6 7 -9 19 -6 28 4 10 2 13 -5 8 -16 -9 -15 7 0 22 9 9 9 12 -1 12
-7 0 -9 5 -6 10 3 6 2 10 -3 10 -6 0 -13 7 -16 16 -5 14 -4 15 9 4 13 -11 14
-10 9 4 -3 9 -10 16 -15 16 -5 0 -9 5 -9 11 0 5 6 7 13 3 7 -5 6 0 -3 10 -8
10 -13 31 -12 47 2 18 -1 29 -8 29 -9 0 -9 5 1 17 10 11 10 14 2 9 -9 -5 -13
1 -14 21 -2 53 -4 58 -17 55 -8 -1 -11 2 -7 8 4 6 1 18 -6 26 -10 12 -9 13 7
8 18 -7 18 -6 -1 16 -11 13 -15 21 -9 17 6 -3 11 0 11 8 0 8 -5 11 -10 8 -6
-4 -8 2 -5 15 4 12 1 25 -4 29 -7 4 -8 1 -3 -8 5 -8 5 -11 0 -7 -5 5 -10 22
-12 40 -2 18 -8 35 -14 39 -6 3 -10 9 -10 13 3 20 -1 26 -13 26 -10 0 -13 7
-11 21 4 18 2 19 -12 7 -9 -7 -14 -8 -10 -2 9 15 -72 87 -90 80 -8 -3 -11 -1
-8 4 3 5 -6 12 -20 16 -13 3 -22 10 -20 15 3 5 -6 11 -20 15 -13 3 -23 10 -20
14 3 4 -9 13 -25 20 -17 7 -30 17 -30 22 0 6 -7 8 -15 5 -8 -4 -17 -1 -21 5
-5 7 -2 8 6 3 9 -6 11 -4 6 4 -5 7 -14 10 -22 7 -9 -3 -14 1 -14 12 0 15 -2
15 -10 2 -5 -8 -10 -10 -10 -4 0 6 -7 11 -15 12 -8 1 -22 3 -30 4 -8 1 -15 6
-15 12 0 6 -5 4 -10 -4 -6 -10 -10 -11 -10 -2 0 14 -21 12 -32 -3 -5 -6 -8 -5
-8 3 0 7 -15 12 -42 12 -32 0 -39 3 -28 10 8 5 10 10 4 10 -5 0 -15 -5 -22
-12 -9 -9 -12 -9 -13 2 0 10 -4 7 -9 -5 -7 -16 -9 -17 -9 -3 -1 9 -6 20 -13
24 -7 4 -8 3 -4 -4 10 -16 -7 -15 -23 1 -11 10 -13 10 -7 0 4 -7 3 -13 -1 -13
-5 0 -15 6 -22 13 -8 6 -11 7 -8 1 3 -6 0 -11 -8 -11 -8 0 -12 4 -10 8 3 3
-67 6 -154 6 -111 -1 -157 -5 -154 -13z m-710 -569 c0 -8 -4 -12 -9 -9 -5 3
-6 10 -3 15 9 13 12 11 12 -6z m1093 -1991 c0 -8 -19 -13 -24 -6 -3 5 1 9 9 9
8 0 15 -2 15 -3z"/>
</g>
</svg>
